<svg width="366" height="368" viewBox="0 0 366 368" fill="none" xmlns="http://www.w3.org/2000/svg">
<path d="M312 100.917V300C312 307.18 306.18 313 299 313H66C58.8203 313 53 307.18 53 300V100.917M312 100.917V67C312 59.8203 306.18 54 299 54H66C58.8203 54 53 59.8203 53 67V100.917M312 100.917H53" stroke="#3255A4" stroke-width="6"/>
<rect x="221" y="72" width="12" height="12" fill="#3255A4"/>
<rect x="249" y="72" width="12" height="12" fill="#3255A4"/>
<rect x="277" y="72" width="12" height="12" fill="#3255A4"/>
<path d="M312 100.917V300C312 307.18 306.18 313 299 313H66C58.8203 313 53 307.18 53 300V100.917M312 100.917V67C312 59.8203 306.18 54 299 54H66C58.8203 54 53 59.8203 53 67V100.917M312 100.917H53" stroke="#3255A4" stroke-width="6"/>
<rect x="221" y="72" width="12" height="12" fill="#3255A4"/>
<rect x="249" y="72" width="12" height="12" fill="#3255A4"/>
<rect x="277" y="72" width="12" height="12" fill="#3255A4"/>
<path d="M90 148C90 144.134 93.134 141 97 141H268C271.866 141 275 144.134 275 148V306C275 309.866 271.866 313 268 313H97C93.134 313 90 309.866 90 306V148Z" stroke="#3255A4" stroke-width="6"/>
<path d="M151 142V310" stroke="#3255A4" stroke-width="6"/>
<path d="M215 142V310" stroke="#3255A4" stroke-width="6"/>
</svg>
