<svg width="366" height="368" viewBox="0 0 366 368" fill="none" xmlns="http://www.w3.org/2000/svg">
<path d="M312 100.917V300C312 307.18 306.18 313 299 313H66C58.8203 313 53 307.18 53 300V100.917M312 100.917V67C312 59.8203 306.18 54 299 54H66C58.8203 54 53 59.8203 53 67V100.917M312 100.917H53" stroke="#002A61" stroke-width="6"/>
<rect x="221" y="72" width="12" height="12" fill="#002A61"/>
<rect x="249" y="72" width="12" height="12" fill="#002A61"/>
<rect x="277" y="72" width="12" height="12" fill="#002A61"/>
<path d="M84.5 144H132" stroke="#002A61" stroke-width="6" stroke-linecap="round"/>
<path d="M84 201H134" stroke="#002A61" stroke-width="6" stroke-linecap="round"/>
<path d="M84.5 258H136" stroke="#002A61" stroke-width="6" stroke-linecap="round"/>
<path d="M158 101L158 313" stroke="#002A61" stroke-width="6" stroke-linecap="round"/>
<rect x="186" y="139" width="13" height="18" rx="1" fill="#002A61"/>
<rect x="209" y="143" width="12" height="14" rx="1" fill="#002A61"/>
<rect x="231" y="129" width="13" height="28" rx="1" fill="#002A61"/>
<rect x="254" y="136" width="12" height="21" rx="1" fill="#002A61"/>
<rect x="276" y="121" width="13" height="36" rx="1" fill="#002A61"/>
<rect x="186" y="196" width="13" height="18" rx="1" fill="#002A61"/>
<rect x="209" y="200" width="12" height="14" rx="1" fill="#002A61"/>
<rect x="231" y="186" width="13" height="28" rx="1" fill="#002A61"/>
<rect x="254" y="193" width="12" height="21" rx="1" fill="#002A61"/>
<rect x="276" y="178" width="13" height="36" rx="1" fill="#002A61"/>
<rect x="186" y="253" width="13" height="18" rx="1" fill="#002A61"/>
<rect x="209" y="257" width="12" height="14" rx="1" fill="#002A61"/>
<rect x="231" y="243" width="13" height="28" rx="1" fill="#002A61"/>
<rect x="254" y="250" width="12" height="21" rx="1" fill="#002A61"/>
<rect x="276" y="235" width="13" height="36" rx="1" fill="#002A61"/>
</svg>
